<svg width="1683" height="512" viewBox="0 0 1683 512" fill="none" xmlns="http://www.w3.org/2000/svg">
  <path d="M1683 0H0V512H1683V0Z" fill="white"/>
  <path d="M1683 0H0V512H1683V0ZM841.5 460.8C664.3 460.8 520.2 316.7 520.2 139.5C520.2 62.4 577.6 0 654.7 0H1028.3C1105.4 0 1162.8 62.4 1162.8 139.5C1162.8 316.7 1018.7 460.8 841.5 460.8Z" fill="black"/>
  <path d="M841.5 51.2C747.9 51.2 672.2 126.9 672.2 220.5C672.2 314.1 747.9 389.8 841.5 389.8C935.1 389.8 1010.8 314.1 1010.8 220.5C1010.8 126.9 935.1 51.2 841.5 51.2Z" fill="#00A651"/>
</svg>
